<svg xmlns="http://www.w3.org/2000/svg" xmlns:xlink="http://www.w3.org/1999/xlink" version="1.1" width="1000" height="1000" viewBox="0 0 1000 1000" xml:space="preserve">
<desc>Created with Fabric.js 3.5.0</desc>
<defs>
</defs>
<rect x="0" y="0" width="100%" height="100%" fill="#ffffff"/>
<g transform="matrix(-0.2985 0 0 0.2985 499.9875 499.9875)" id="169974">
<g style="" vector-effect="non-scaling-stroke">
		<g transform="matrix(1 0 0 1 -1625 -1625)">
<rect style="stroke: none; stroke-width: 1; stroke-dasharray: none; stroke-linecap: butt; stroke-dashoffset: 0; stroke-linejoin: miter; stroke-miterlimit: 4; is-custom-font: none; font-file-url: none; fill: rgb(255,255,255); fill-rule: nonzero; opacity: 1;" x="-50" y="-50" rx="30" ry="30" width="100" height="100"/>
</g>
		<g transform="matrix(1 0 0 1 75.9622 201.1683)">
<path style="stroke: none; stroke-width: 1; stroke-dasharray: none; stroke-linecap: butt; stroke-dashoffset: 0; stroke-linejoin: miter; stroke-miterlimit: 4; is-custom-font: none; font-file-url: none; fill: rgb(255,255,255); fill-rule: nonzero; opacity: 1;" transform=" translate(-402.9622, -1217.8307)" d="M 795.908 786.084 C 785.491 691.697 769.732 594.881 729.935 507.458 C 716.261 394.404 739.299 232.489 634.599 156.253 C 635.938 142.717 611.689 131.053 600.448 123.828 C 582.187 111.861 557.489 88.3493 535.875 101.521 C 529.056 99.4391 512.241 107.961 504.5 89.4792 C 496.571 70.5483 497.723 32.5895 491.4 29.1243 C 494.19 1.76913 371.267 -16.5339 339.184 22.1326 C 323.95 51.7905 341.448 61.2305 307.099 100.217 C 291.93 101.149 277.461 104.996 263.471 110.271 C 251.92 111.869 240.43 113.813 228.992 115.835 C 83.1055 129.342 72.0759 237.337 59.1457 353.31 C 48.075 509.094 -0.0140726 664.297 20.7761 821.31 C 9.28544 877.454 8.52973 937.363 22.2505 992.973 C -22.7376 1058.7 9.87275 1095.07 37.9325 1157.57 C 42.6813 1168.81 46.8141 1180.39 48.9159 1192.39 C 48.3614 1201.68 48.423 1210.99 50.0556 1220.21 C 54.8178 1241.23 89.8432 1238.29 91.4039 1217.05 C 94.1433 1203.11 93.2942 1188.64 95.4186 1174.62 C 95.2954 1175.35 95.0797 1176.75 95.0797 1176.86 C 100.217 1141.59 108.497 1127.91 131.368 1101 C 160.734 1058.53 142.676 1005.16 149.378 957.632 C 151.215 941.749 153.644 926.078 155.269 910.166 C 165.172 915.992 175.935 920.853 187.182 923.89 C 180.096 978.585 192.421 1033.54 206.125 1086.45 C 243.214 1222.74 292.386 1362.69 271.028 1505.71 C 271.038 1505.64 247.74 1622.6 229.339 1680.33 C 207.09 1753.55 189.177 1826.89 157.7 1897.09 C 140.841 1947.62 105.174 1995.56 106.559 2049.96 C 94.245 2068.18 116.417 2090.06 135.956 2090.01 C 135.956 2114.67 122.936 2161.15 122.936 2161.15 C 120.891 2178.37 112.081 2200.31 125.4 2214.95 C 107.293 2261.07 100.931 2310.98 95.9617 2359.8 C 94.0632 2382.96 91.8865 2410.87 116.673 2424 C 139.766 2433.99 166.65 2429.6 191.309 2432.58 C 215.166 2432.61 239.854 2438.87 263.317 2433.46 C 290.266 2425.79 295.691 2396.6 290.617 2373.25 C 287.344 2348.94 283.421 2324.71 279.129 2300.54 C 266.395 2247.94 262.831 2189.56 246.519 2138.95 C 255.657 2137.24 264.828 2132.63 271.028 2125.91 C 286.78 2125.39 298.394 2113.67 302.252 2099.81 C 305.038 2090.87 317.031 2089.03 325.108 2086.19 C 326.619 2093.91 331.033 2100.39 334.627 2107.41 C 331.557 2122.31 341.802 2139.74 358.715 2140.08 C 361.158 2142.43 363.428 2144.83 365.923 2147.07 C 346.69 2175.37 332.428 2207.34 328.815 2241.05 C 324.462 2266.91 319.908 2308.35 354.135 2316.01 C 367.057 2317.71 380.963 2321.02 393.625 2316.31 C 407.742 2322.65 422.752 2325.68 437.951 2328.4 C 503.095 2339.39 565.924 2338.47 631.611 2345.85 C 648.94 2348.26 718.378 2355.39 729.935 2345.85 C 744.033 2348.73 735.508 2338.22 741.439 2328.4 C 746.164 2321.02 758.777 2306.89 750.635 2302.79 C 733.55 2295.42 718.407 2280.92 702.776 2272.68 C 629.727 2231.11 472.168 2160.3 473.262 2158.3 C 473.046 2159.71 474.217 2124.12 480.057 2114.67 C 488.273 2106.53 504.646 2107.96 513.221 2100.17 C 518.663 2100.43 559.494 2088.68 555.998 2069 C 551.52 2053.3 566.15 2034.05 555.998 2020.79 C 589.611 1713.74 667.827 1415.95 710.991 1110.54 C 711.946 1109.7 712.891 1108.85 713.846 1108.01 C 736.104 1111.74 753.395 1089.38 760.153 1071.78 C 763.408 1068.47 766.54 1065.07 769.415 1061.38 C 787.552 1037.79 787.877 1007.07 789.94 979.002 C 794.427 975.707 797.312 970.586 797.559 964.529 C 798.276 946.49 799.041 928.451 799.797 910.422 C 799.807 910.422 799.807 910.422 799.807 910.412 C 805.393 901.444 806.153 891.351 804.561 881.07 C 805.148 847.821 810.27 816.674 795.908 786.084 Z" stroke-linecap="round"/>
</g>
		<g transform="matrix(1 0 0 1 81.8257 212.0652)">
<path style="stroke: none; stroke-width: 1; stroke-dasharray: none; stroke-linecap: butt; stroke-dashoffset: 0; stroke-linejoin: miter; stroke-miterlimit: 4; is-custom-font: none; font-file-url: none; fill: rgb(0,0,0); fill-rule: evenodd; opacity: 1;" transform=" translate(-414.8257, -1212.0652)" d="M 349.088 2.19135 C 348.714 -0.708128 344.786 -0.75269 344.45 2.19135 C 342.391 20.2032 338.06 38.0091 328.386 53.6552 C 296.371 116.184 107.134 55.6902 73.411 214.366 C 55.2903 295.205 55.88 378.596 44.8042 460.389 C 41.2722 483.1 37.0382 505.734 32.8045 528.366 C 21.5978 588.275 10.3927 648.175 12.2139 709.469 C 12.4482 772.128 18.8994 834.39 20.7876 897.043 C 21.1107 907.651 21.3056 918.262 21.3228 928.875 C 21.6449 932.904 21.3003 937.294 20.9505 941.749 C 20.1845 951.507 19.3948 961.568 25.5414 968.779 C 23.1413 974.453 21.0723 980.131 18.8126 985.9 C -7.05791 1020.76 -5.20605 1070.33 17.9957 1105.93 C 28.3748 1121.43 38.8467 1137.23 42.6231 1155.72 C 47.5911 1173.63 47.5396 1192.76 54.3442 1210.15 C 61.7991 1227.12 84.8089 1237.51 99.2653 1221.59 C 104.713 1215.59 106.977 1207.8 108.868 1200.16 L 123.945 1138.42 C 128.526 1113.99 130.584 1110.28 150.276 1097.16 L 152.154 1095.92 C 174.822 1074.7 173.088 1040.34 164.298 1012.94 C 167.957 1011.52 170.118 1007.66 169.337 1003.22 C 165.947 983.951 164.94 964.257 166.516 944.776 C 170.604 934.922 173.098 924.454 175.07 913.897 C 178.432 914.77 181.836 915.494 185.215 916.289 C 186.01 940.705 190.949 964.632 196.419 988.314 C 205.929 1107.04 262.288 1216.52 269.991 1335.55 C 284.714 1505.72 228.339 1657.32 171.115 1811.2 C 146.954 1876.18 122.641 1941.55 103.465 2008.91 L 103.293 2009.51 C 102.926 2010.78 102.543 2012.07 102.158 2013.36 C 99.4476 2022.44 96.6144 2031.94 98.3364 2041.32 C 100.258 2052.62 115.152 2063.09 135.209 2072.34 C 135.324 2073.1 135.436 2073.8 135.561 2074.4 C 136.535 2079.17 137.453 2083.92 137.766 2088.78 C 138.005 2092.48 137.811 2096.18 137.544 2099.87 C 135.498 2106.2 133.595 2112.57 132.05 2119.08 C 120.823 2159.01 113.665 2199.89 105.923 2240.58 L 104.786 2246.53 C 103.151 2257.08 101.096 2267.71 99.031 2278.38 C 92.9033 2310.05 86.6957 2342.14 91.1743 2373.91 C 111.478 2426.07 224.987 2430.84 272.621 2418.36 C 336.734 2404.45 323.399 2352.47 311.387 2305.65 C 310.441 2301.96 309.504 2298.31 308.614 2294.71 C 293.581 2235.28 278.945 2175.48 275.603 2114.14 C 278.167 2114.33 281.052 2114.93 284.039 2115.56 C 292.764 2117.39 302.357 2119.4 307.437 2111.7 C 317.346 2094.92 324.101 2076.11 332.375 2058.49 C 331.939 2061.35 330.428 2066.07 328.656 2071.62 C 322.994 2089.33 314.663 2115.39 330.168 2115.61 C 330.291 2115.74 330.4 2115.87 330.529 2115.99 C 333.692 2118.86 337.902 2120.34 341.974 2121.57 L 342.911 2121.85 C 347.101 2123.1 351.366 2124.04 355.68 2124.73 C 352.776 2136.86 347.574 2150.87 342.079 2165.67 C 325.099 2211.39 305.317 2264.67 341.826 2293.57 C 349.708 2299.16 359.448 2301.98 368.8 2304.14 C 480.157 2329.76 595.408 2339.85 709.653 2336.26 C 713.78 2335.93 717.984 2335.87 722.199 2335.81 C 730.351 2335.68 738.543 2335.56 746.299 2333.49 C 756.09 2330.9 761.977 2317.46 752.989 2310.81 C 770.207 2309.38 778.338 2290.72 775.428 2275.6 L 775.236 2274.57 C 767.997 2240.82 672.66 2213.06 641.429 2193.85 C 593.013 2173.45 547.792 2142.27 496.305 2130.39 C 492.928 2122.82 490.31 2115.04 489.617 2106.75 C 490.278 2106.65 490.924 2106.45 491.527 2106.12 C 491.842 2105.95 492.151 2105.77 492.461 2105.59 C 504.838 2101.57 516.528 2095.22 527.842 2088.72 L 531.225 2086.77 C 556.04 2082.81 582.944 2063.16 573.574 2036.09 C 582.828 1712.32 680.646 1415.87 722.734 1095.99 C 759.85 1106.93 798.694 1037.49 808.328 1008.61 C 814.48 987.751 811.758 966.608 809.034 945.439 C 807.145 930.77 805.256 916.088 806.316 901.478 C 808.285 900.119 810.498 898.818 812.756 897.491 C 821.645 892.268 831.241 886.629 829.429 875.318 C 821.849 738.517 770.354 609.463 745.426 475.602 C 720.969 340.813 743.078 141.449 582.5 86.9873 C 578.607 86.9933 574.818 85.7594 570.783 83.9354 C 566.314 81.9142 562.222 79.9298 557.214 79.802 C 555.596 79.7614 553.984 79.8671 552.371 79.9729 C 550.919 80.0681 549.466 80.1633 548.01 80.1516 C 533.666 80.0357 519.115 69.3171 513.214 56.8339 C 510.994 52.1391 509.698 47.1809 508.974 42.1058 C 508.47 40.1698 508 38.2309 507.546 36.3137 C 506.702 32.7518 505.987 28.8294 504.954 25.0763 C 504.888 24.5356 504.813 23.9959 504.758 23.4542 C 504.677 21.4024 504.59 19.3605 504.459 17.3433 C 504.144 12.4237 496.633 12.3257 496.583 17.3433 C 496.559 19.6556 496.628 21.955 496.871 24.2108 C 496.966 26.9944 497.056 29.7988 497.202 32.6013 C 497.058 47.672 498.257 68.107 500.583 70.4916 C 505.396 89.0154 534.937 88.7074 550.791 92.3437 C 536.506 166.149 443.678 205.307 379.443 163.457 C 348.828 146.444 330.872 116.315 305.359 93.7785 C 339.384 77.4511 353.218 37.2278 349.088 2.19135 Z M 305.662 118.048 L 307.194 120.077 C 285.453 149.819 324.622 187.74 355.044 171.502 C 396.899 204.515 457.537 209.777 503.999 184.809 C 505.418 187.69 508.076 189.968 512.145 190.768 C 538.388 197.816 577.255 181.71 568.962 150.202 C 569.203 149.762 569.412 149.313 569.6 148.86 C 569.412 147.753 569.229 146.645 569.064 145.535 C 567.361 140.372 564.675 135.549 560.483 131.263 C 560.27 131.044 560.113 130.815 559.984 130.584 C 559.49 130.501 558.985 130.438 558.463 130.409 C 564.036 119.979 568.201 108.835 570.71 97.3583 C 648.109 131.925 689.59 199.895 700.607 280.53 C 683.221 289.991 688.086 320.879 707.344 325.075 C 714.408 390.005 718.566 455.385 733.005 519.321 C 712.149 535.086 720.675 577.896 747.412 582.156 C 770.676 678.454 799.429 774.691 805.469 873.967 C 784.937 887.435 762.686 897.825 738.858 904.512 C 737.121 904.999 735.685 905.747 734.505 906.669 L 734.484 905.575 C 772.616 893.762 779.862 861.861 768.433 827.478 C 789.385 829.61 797.52 794.796 778.276 787.707 C 772.45 786.593 763.388 785.943 759.988 791.783 L 759.862 791.841 C 753.318 765.084 746.613 738.374 739.876 711.662 C 763.029 701.5 752.155 641.078 724.033 648.297 C 707.849 582.588 692.957 516.568 683.043 449.676 C 709.259 445.546 699.401 388.01 675.269 386.824 C 668.812 326.74 671.285 266.198 667.925 206.048 L 667.92 205.936 C 667.824 204.951 666.203 204.738 665.972 205.789 C 664.453 214.934 661.349 223.759 658.934 232.629 C 636.383 191.047 569.508 207.717 570.389 254.752 C 555.317 305.526 621.301 331.717 652.969 293.239 C 651.049 317.055 652.833 341.071 654.607 364.965 C 656.034 384.192 657.456 403.338 656.937 422.234 C 655.33 428.031 657.178 434.582 661.306 438.975 C 664.154 461.021 667.537 482.995 671.322 504.895 C 655.299 507.316 644.452 521.648 640.887 536.223 L 640.686 537.032 C 634.37 563.845 659.107 600.958 688.949 594.807 C 694.552 620.684 700.52 646.487 706.673 672.241 C 688.589 683.465 695.859 715.41 717.636 717.491 C 721.43 733.015 725.223 748.54 728.995 764.07 C 728.422 763.931 727.846 763.808 727.267 763.709 C 723.868 755.589 711.777 758.367 705.976 762.661 C 660.654 789.961 700.954 865.431 748.451 846.408 C 752.802 862.748 747.314 876.573 730.52 882.081 C 713.405 888.341 695.26 891.549 677.545 895.763 C 675.924 888.971 669.783 883.328 663.25 881.941 C 656.56 875.912 647.852 872.533 638.926 871.438 C 616.622 867.521 579.988 886.708 585.041 911.876 C 535.006 918.42 484.469 921.613 433.962 921.305 C 429.569 909.769 419.732 899.192 407.708 894.588 C 405.089 894.09 402.375 893.449 399.606 892.796 C 391.856 890.966 383.683 889.037 376.008 889.862 C 360.276 891.205 342.072 900.136 339.47 916.87 C 285.367 912.379 231.845 902.632 178.974 890.847 C 186.967 843.196 193.052 795.256 198.067 747.218 C 209.599 735.689 210.93 715.365 202.526 701.668 C 213.693 568.871 226.275 436.202 248.109 304.62 C 317.622 324.392 336.795 219.252 264.723 213.079 C 211.277 213.164 203.681 277.391 244.289 302.899 C 231.442 335.481 223.368 370.123 216.73 404.499 C 214.608 402.34 211.797 400.877 208.799 400.493 C 202.397 388.146 182.215 393.706 172.451 399.317 C 161.413 405.7 153.931 417.605 151.758 429.891 C 144.337 458.832 173.352 496.117 204.079 478.972 C 194.671 542.359 189.179 606.206 182.895 669.948 L 181.895 680.012 C 166.023 674.721 149.193 689.076 146.052 704.1 C 142.957 716.719 145.608 729.533 150.005 741.533 C 153.377 752.431 159.944 765.824 172.77 766.921 C 168.475 804.348 163.616 841.723 157.231 878.868 C 156.779 884.018 155.14 891.418 153.306 899.703 C 148.537 921.241 142.446 948.754 152.424 958.243 C 151.159 970.263 150.932 982.393 151.829 994.558 C 115.287 985.098 79.4099 973.082 44.6557 958.529 C 44.9789 957.715 45.1475 956.853 45.1889 955.992 L 45.1576 955.945 C 44.2448 955.742 43.4703 955.095 43.2371 953.878 C 43.0008 952.649 42.8362 951.406 42.7867 950.165 C 42.1082 949.602 41.2974 949.168 40.3452 948.93 C 40.9336 905.924 38.5827 863.066 35.937 820.168 L 34.3797 795.137 C 53.3142 793.286 61.3941 760.469 59.7846 744.818 C 58.4962 731.814 48.7654 701.089 30.99 707.939 C 30.6749 668.952 33.0468 629.867 39.7696 591.329 C 95.2405 634.235 148.018 544.233 102.131 504.617 C 88.1168 491.275 64.6152 495.09 54.7582 511.304 C 68.0584 442.073 71.4855 371.577 78.7869 301.617 C 112.485 336.544 167.744 293.396 148.782 251.92 C 140.131 229.225 110.983 218.333 89.3073 229.745 C 95.499 193.972 110.756 158.354 143.777 138.914 C 144.246 150.794 156.402 159.176 168.061 156.141 C 201.43 176.039 247.02 154.85 255.908 118.279 L 256.015 117.863 C 257.63 111.359 255.847 105.078 252.061 100.391 C 280.23 88.9513 289.371 96.608 305.662 118.048 Z M 471.886 217.746 C 423.129 190.482 376.723 242.098 403.278 288.55 C 452.458 357.962 541.266 265.712 471.886 217.746 Z M 503.379 447.089 C 472.689 391.358 547.243 341.248 585.185 394.89 C 614.286 443.474 535.719 499.559 503.379 447.089 Z M 364.978 377.089 C 318.249 363.516 280.837 419.879 315.293 455.016 C 375.069 510.329 441.349 405.064 364.978 377.089 Z M 427.798 521.717 C 449.271 501.195 486.792 500.98 503.107 528.059 C 522.446 561.463 499.366 618.612 455.771 615.896 C 410.476 612.698 398.067 549.31 427.798 521.717 Z M 292.84 536.692 C 247.742 495.816 200.486 559.059 228.001 601.72 C 243.645 625.954 284.096 625.366 298.662 600.266 C 307.616 581.479 308.307 552.497 292.84 536.692 Z M 301.963 697.98 C 301.033 660.253 340.135 625.911 376.866 647.356 C 436.317 687.019 375.433 778.012 318.392 727.014 C 308.226 720.483 302.219 709.883 301.963 697.98 Z M 601.251 647.162 C 586.747 642.781 568.981 648.319 561.05 660.89 C 505.451 688.496 549.306 770.87 604.295 742.217 C 636.306 723.294 641.032 659.809 601.251 647.162 Z M 434.686 791.657 C 437.629 769.25 461.142 747.844 484.807 754.012 C 506.492 759.472 512.147 784.727 515.992 803.431 C 524.735 842.158 480.697 881.423 443.591 860.095 C 419.888 845.966 416.423 811.386 434.686 791.657 Z M 270.457 885.903 C 319.808 870.285 314.968 783.544 258.389 783.786 C 236.621 784.095 218.367 800.899 216.628 821.975 C 197.807 855.855 233.757 896.487 270.457 885.903 Z M 89.1702 826.508 C 133.626 819.974 148.167 891.373 112.337 911.197 C 100.784 918.053 84.898 918.646 73.5233 911.073 C 43.2363 892.746 51.6605 830.273 89.1702 826.508 Z M 801.908 904.02 L 800.701 904.616 C 799.477 905.226 798.039 905.957 796.426 906.776 C 779.761 915.24 744.501 933.149 734.77 925.314 C 735.023 976.463 730.927 1027.36 724.927 1078.1 C 726.461 1077.76 728.043 1077.8 729.461 1078.32 C 759.552 1069.99 792.245 1013.08 794.769 983.839 C 795.426 975.339 795.335 966.721 795.243 958.099 C 795.048 939.725 794.853 921.333 801.908 904.02 Z M 729.306 907.355 C 555.382 954.058 370.245 956.987 194.506 918.371 C 203.27 946.486 209.852 975.112 214.501 1004.13 C 224.467 1078.76 251.917 1149.28 270.409 1221.99 C 291.743 1307.81 296.826 1380.07 286.208 1467.73 L 285.882 1470.38 C 262.503 1666.96 166.766 1846.4 121.787 2037.24 C 174.719 2069.39 240.107 2081.95 300.801 2095.24 C 338.945 2016.53 371.177 1935.82 392.299 1851.07 C 405.99 1803.21 420.463 1755.85 434.864 1708.73 C 500.502 1493.95 564.645 1284.06 546.382 1053.74 C 541.417 1050.48 543.032 1043.61 545.761 1039.21 C 544.818 1018.95 543.513 998.711 541.377 978.56 C 541.306 977.879 542.446 977.744 542.586 978.4 C 546.117 995.659 549.825 1012.87 552.927 1030.22 C 574.31 1008.45 588.138 981.237 606.943 957.616 C 609.62 975.254 572.962 1043.57 556.832 1054.14 C 591.201 1265.33 533.968 1458.66 472.152 1659.51 C 430.555 1803.73 390.139 1948.37 347.222 2092.19 C 347.742 2092.2 348.263 2092.21 348.784 2092.22 C 347.272 2089.44 365.39 2089.41 381.559 2089.39 C 392.992 2089.37 403.452 2089.35 405.309 2088.36 C 445.534 2084.55 484.904 2075.02 524.029 2065.46 L 528.83 2064.22 C 538.578 2061.65 549.895 2057.97 551.648 2047.54 L 551.674 2046.23 C 551.685 2045.84 551.703 2045.53 551.735 2045.5 L 551.454 2044.33 C 551.393 2044.06 551.352 2043.85 551.361 2043.78 L 550.972 2043.2 L 550.802 2042.96 C 550.44 2042.44 550.193 2042.09 550.664 2042.6 C 546.279 2037.77 545.894 2030.33 550.981 2025.72 C 560.541 1674.43 673.621 1352.92 715.5 1005.56 C 719.651 972.766 724.718 940.094 729.306 907.355 Z M 20.8744 1065.69 C 12.946 1035.23 16.4003 1000.36 36.5102 975.368 C 70.5424 989.655 105.751 1001.3 141.814 1009.56 C 142.591 1014.41 143.745 1019.26 144.9 1024.12 C 147.76 1036.15 150.633 1048.23 147.861 1060.6 C 146.088 1074.76 135.07 1083.19 123.774 1090.46 L 122.14 1091.5 C 108.312 1102.57 105.971 1121.57 102.068 1137.55 L 88.5861 1192.77 C 87.507 1197.31 86.0375 1205.98 82.9702 1207.95 C 73.2463 1210.09 70.8586 1194.63 69.3125 1184.62 C 69.0016 1182.61 68.7247 1180.81 68.429 1179.43 L 68.3199 1178.94 C 64.4486 1153.21 57.3512 1128.1 42.1334 1106.49 C 33.4547 1093.53 25.0376 1080.8 20.8744 1065.69 Z M 147.67 2078.32 C 147.691 2078.06 147.635 2077.83 147.528 2077.65 C 184.332 2092.45 231.548 2103.57 251.629 2109.11 L 253.413 2109.61 C 251.809 2119.36 252.754 2129.39 253.686 2139.28 C 253.819 2140.69 253.951 2142.1 254.076 2143.51 L 254.247 2145.49 C 215.315 2132.83 168.044 2140.54 139.799 2170.99 C 144.37 2140.27 147.516 2109.35 147.67 2078.32 Z M 475.957 2098.01 C 444.092 2103.55 411.568 2106.46 379.395 2101.43 C 377.225 2128.07 366.917 2153.93 358.809 2179.42 C 385.606 2186.5 406.94 2171.39 428.371 2156.21 C 442.49 2146.21 456.652 2136.18 472.445 2132.45 C 470.192 2120.67 470.991 2108.28 475.957 2098.01 Z M 390.845 2284.87 C 374.499 2281.68 350.088 2279.45 346.254 2260.5 C 478.097 2281.19 611.572 2291.12 744.243 2305.71 C 745.057 2307.02 746.156 2308.14 747.439 2308.98 C 747.294 2308.98 747.154 2308.96 747.005 2308.96 L 746.683 2308.96 C 744.943 2308.95 743.768 2309.71 742.567 2310.48 C 741.954 2310.88 741.334 2311.28 740.629 2311.58 C 663.443 2315.1 585.742 2313.51 508.933 2304.24 C 469.296 2299.6 429.88 2293.04 390.845 2284.87 Z M 113.297 2354.46 C 110.499 2375.08 124.584 2380.39 141.082 2386.6 L 142.239 2387.04 C 185.555 2402.93 235.57 2406.7 279.598 2391.55 C 287.4 2388.25 292.982 2383.31 295.755 2376.07 C 234.651 2381.65 170.487 2377.59 113.297 2354.46 Z" stroke-linecap="round"/>
</g>
		<g transform="matrix(1 0 0 1 73.7026 -1207.2319)">
<path style="stroke: none; stroke-width: 1; stroke-dasharray: none; stroke-linecap: butt; stroke-dashoffset: 0; stroke-linejoin: miter; stroke-miterlimit: 4; is-custom-font: none; font-file-url: none; fill: rgb(255,255,255); fill-rule: nonzero; opacity: 1;" transform=" translate(-196.7272, -229.3775)" d="M 229.601 0.586956 C 286.382 0.586956 357.497 65.3578 378.311 92.9204 C 395.81 116.094 393.334 235.475 393.334 306.292 C 393.334 321.103 386.639 349.134 384.209 363.301 C 375.303 415.216 336.5 458.755 259.701 458.755 C 197.169 458.755 149.047 438.948 102.511 388.29 C 91.8948 376.732 40.0463 418.107 29.4427 403.207 C 1.74601 403.207 -21.413 144.429 32.9657 66.8108 C 87.3443 -10.8074 172.82 0.586956 229.601 0.586956 Z" stroke-linecap="round"/>
</g>
		<g transform="matrix(1 0 0 1 75.9976 -1191.1456)">
<path style="stroke: none; stroke-width: 1; stroke-dasharray: none; stroke-linecap: butt; stroke-dashoffset: 0; stroke-linejoin: miter; stroke-miterlimit: 4; is-custom-font: none; font-file-url: none; fill: rgb(0,0,0); fill-rule: evenodd; opacity: 1;" transform=" translate(-227.9974, -269.8541)" d="M 87.9165 43.2046 C 120.726 13.3546 164.436 -1.00535 208.536 0.054647 C 231.376 0.604647 254.136 4.95465 275.706 12.4046 C 286.496 16.1446 296.946 21.0246 306.936 26.5446 C 310.536 28.5293 313.855 30.8547 317.05 33.3243 L 317.846 33.9446 L 317.856 33.9446 C 326.426 37.0246 334.076 42.5546 341.016 49.0246 C 354.926 47.9146 368.946 49.1646 382.396 53.4546 C 401.116 59.4346 418.446 70.3847 430.616 85.9346 C 444.792 104.038 449.505 125.997 447.824 148.665 L 447.513 152.516 C 445.85 172.541 442.871 198.297 426.436 211.455 C 425.186 212.455 423.806 213.215 422.376 213.675 C 432.966 231.815 441.656 251.955 446.856 272.295 C 466.706 349.985 451.446 431.005 427.576 505.885 C 425.616 512.055 416.286 516.155 411.536 510.125 C 403.056 499.345 390.736 491.125 376.876 489.585 C 374.118 489.278 371.363 489.25 368.626 489.221 C 362.88 489.162 357.21 489.103 351.736 486.475 C 348.566 484.945 345.506 482.445 343.306 479.405 C 329.666 484.575 314.976 487.015 300.406 486.415 C 276.496 485.435 250.936 477.155 234.486 458.995 C 231.846 456.08 231.177 452.807 231.785 449.857 C 233.848 449.121 235.966 448.573 238.148 448.23 C 259.008 460.524 282.002 468.739 306.714 469.255 C 320.993 469.553 334.921 467.556 346.499 458.64 C 349.004 456.71 351.308 454.573 353.438 452.277 C 377.645 436.705 394.712 410.256 402.826 381.925 C 410.386 355.505 409.456 327.995 406.856 300.895 L 405.485 286.594 C 403.485 265.605 401.63 244.553 401.11 223.475 L 401.267 223.467 C 406.379 223.137 406.416 215.134 401.267 215.467 C 394.703 215.892 388.163 215.576 381.627 215.261 C 374.904 214.937 368.186 214.613 361.452 215.096 C 361.341 208.819 360.889 202.57 359.044 196.516 C 357.991 193.057 351.968 192.375 351.33 196.516 C 350.476 202.056 350.164 207.565 350.071 213.13 C 342.644 213.031 335.218 212.736 327.793 212.44 C 315.355 211.945 302.919 211.45 290.474 211.881 C 286.808 207.971 285.641 201.038 283.926 196.215 C 283.676 195.505 283.426 194.805 283.166 194.095 C 281.659 200.987 279.523 207.728 276.713 214.327 L 271.839 214.343 C 244.185 214.473 215.967 215.299 188.962 221.043 C 187.085 219.602 185.968 217.088 185.666 214.805 C 183.708 199.949 180.912 185.488 175.957 171.331 L 175.249 169.334 C 175.191 169.168 175.129 168.992 175.065 168.807 C 171.414 174.7 167.058 180.193 162.307 185.308 C 159.507 188.323 156.571 191.206 153.558 194.007 C 150.631 197.257 147.606 200.458 144.674 203.718 C 144.789 204.311 144.889 204.913 144.97 205.526 C 145.867 212.291 145.96 219.152 145.303 225.943 C 144.115 238.22 140.649 250.05 135.081 260.994 L 134.905 262.089 C 134.06 267.218 132.857 272.519 130.047 276.381 C 133.553 280.309 136.254 285.001 137.82 290.214 C 139.214 294.855 132.793 298.877 129.463 295.079 C 126.818 292.062 123.879 289.565 120.651 287.573 C 120.447 287.85 120.079 287.986 119.666 287.755 C 110.676 282.765 95.4065 284.275 86.4265 288.975 C 75.2565 294.815 70.8965 306.805 72.1365 318.955 C 73.3265 330.565 78.4065 344.135 88.2565 350.085 C 92.7765 352.815 96.2965 353.045 101.096 351.735 C 102.631 351.318 104.534 350.039 105.351 349.404 L 106.154 348.76 C 109.301 346.273 112.232 344.57 115.946 344.505 C 119.746 343.32 123.564 344.963 125.017 348.947 L 125.106 349.205 C 125.227 349.565 125.365 349.941 125.51 350.334 C 126.179 352.157 126.979 354.335 126.756 356.885 C 126.476 360.205 124.956 363.225 122.686 365.655 C 122.296 366.075 121.876 366.495 121.446 366.885 C 160.546 409.215 165.566 475.175 145.516 528.055 C 144.646 530.375 143.716 532.665 142.746 534.935 C 139.396 542.715 126.496 540.305 124.856 532.595 C 124.366 530.285 123.826 527.985 123.236 525.705 C 122.152 521.491 120.91 517.318 119.509 513.204 L 118.976 511.665 C 117.786 508.265 116.676 504.835 115.476 501.435 L 115.356 501.046 C 115.311 500.892 115.261 500.715 115.206 500.515 L 113.176 504.945 L 107.006 518.315 C 104.119 524.554 94.9458 521.163 94.6047 515.151 L 94.5965 514.945 C 94.5665 513.835 94.5265 512.735 94.4565 511.645 C 94.0165 503.475 92.6065 495.535 90.3665 487.765 L 89.5583 488.769 C 77.5244 503.647 63.4011 517.592 44.0265 521.025 C 39.1665 521.885 33.6665 516.805 37.0065 511.895 C 38.3865 509.865 39.7165 507.785 40.9765 505.675 C 39.8865 505.165 38.8565 504.635 37.9065 504.095 C 30.5565 499.965 24.4365 494.085 19.3765 487.415 C 8.64648 473.275 4.80648 455.475 3.86648 438.055 C 2.86648 419.645 4.48648 400.235 9.51648 382.475 C 11.6965 374.795 14.6465 367.425 18.0565 360.275 C 17.8165 359.635 17.5865 358.995 17.3565 358.355 C 13.6765 348.095 10.6565 337.605 8.14648 326.995 C 3.08648 305.575 0.366478 283.475 0.0364778 261.465 C -0.563522 222.035 6.23648 181.975 20.5665 145.205 C 35.3665 107.285 57.6265 70.7546 87.9165 43.2046 Z M 332.236 89.6946 C 327.396 88.0046 329.486 80.2847 334.366 81.9746 C 349.626 87.2946 360.146 98.3246 369.006 111.465 C 371.896 115.745 364.966 119.745 362.106 115.505 C 354.476 104.185 345.426 94.2847 332.236 89.6946 Z M 98.8165 97.8847 L 98.235 98.4058 C 81.6923 113.447 75.9051 137.155 67.1865 156.975 C 65.1165 161.685 58.2265 157.605 60.2765 152.935 C 69.4165 132.165 75.5365 107.795 93.1565 92.2246 C 97.0065 88.8247 102.686 94.4647 98.8165 97.8847 Z M 309.976 91.5947 C 305.373 89.52 301.345 96.2199 305.771 98.426 L 305.936 98.5047 C 321.496 105.535 328.116 121.455 334.456 136.235 C 336.476 140.955 343.366 136.885 341.366 132.205 L 340.222 129.553 C 333.607 114.321 325.891 98.796 309.976 91.5947 Z M 93.1565 306.265 L 94.962 305.391 C 100.657 302.673 105.647 300.822 112.376 303.195 C 121.386 306.365 131.036 316.455 124.946 326.245 C 122.706 329.855 118.726 331.295 114.626 330.445 C 107.714 329.011 105.931 322.787 102.423 317.677 L 101.82 316.812 C 99.6811 313.72 96.9768 309.446 93.4165 308.235 C 92.6065 307.955 92.2665 306.695 93.1565 306.265 Z M 62.4924 391.831 C 59.969 387.522 66.7688 383.666 69.4865 387.945 C 73.8545 394.814 76.1057 402.615 78.5735 410.292 L 79.1065 411.935 C 80.7165 416.855 72.9865 418.935 71.3965 414.065 C 68.9165 406.495 66.8965 398.775 62.5865 391.985 L 62.4924 391.831 Z" stroke-linecap="round"/>
</g>
		<g transform="matrix(1 0 0 1 156.6763 -1121.0002)">
<path style="stroke: none; stroke-width: 1; stroke-dasharray: none; stroke-linecap: butt; stroke-dashoffset: 0; stroke-linejoin: miter; stroke-miterlimit: 4; is-custom-font: none; font-file-url: none; fill: rgb(0,0,0); fill-rule: evenodd; opacity: 1;" transform=" translate(-97.6761, -103.0003)" d="M 15.9252 11.6746 C 25.7472 1.65261 51.3592 -8.04539 58.0782 10.4616 C 59.3582 13.9866 56.6332 18.7396 52.9632 19.4706 C 49.6471 20.1305 46.5373 19.632 43.413 19.1311 C 40.8749 18.7243 38.3271 18.3158 35.6512 18.5256 C 30.8182 18.9066 25.7772 20.5216 21.9132 23.5156 C 11.2112 31.8076 8.85721 45.8326 1.40021 56.3866 C 1.03721 56.9006 0.332206 56.6846 0.265206 56.0786 C -1.43279 40.7136 5.16721 22.6506 15.9252 11.6746 Z M 164.471 1.74571 C 157.919 -0.296292 150.538 -0.493292 144.02 1.80871 C 140.872 2.92071 138.005 4.40171 135.378 6.45171 C 132.79 8.47171 131.676 10.5267 129.743 13.0307 C 129.356 13.5327 129.994 14.2247 130.537 14.0637 C 140.738 11.0477 154.631 13.0867 163.104 19.4867 C 166.689 22.1957 169.646 25.8837 171.372 30.0517 C 173.985 36.3617 174.902 42.3067 182.45 44.4907 C 185.823 45.4677 189.549 44.4077 192.02 41.9617 L 192.635 41.3517 L 192.843 41.141 C 197.439 36.3352 195.245 29.5801 190.11 26.6157 C 189.161 24.8407 188.283 21.8597 187.448 20.4167 C 185.876 17.6937 183.916 15.1357 181.798 12.8177 C 177.13 7.71171 171.071 3.80371 164.471 1.74571 Z M 156.036 44.5815 C 172.692 43.8015 183.053 61.9875 179.223 76.8885 C 178.561 79.4595 175.685 81.9835 172.909 81.6945 L 172.209 81.6301 C 171.854 81.596 171.497 81.5511 171.169 81.4605 C 168.533 80.7305 166.17 77.9885 166.362 75.1465 L 166.413 74.3184 C 166.801 67.2793 166.038 59.1692 157.673 57.4645 C 150.578 56.0185 146.617 62.8475 146.533 69.1335 C 146.517 70.2495 145.263 71.0285 144.276 70.4285 C 139.147 67.3075 138.259 61.0985 140.218 55.7515 C 142.701 48.9765 148.915 44.9145 156.036 44.5815 Z M 63.4997 61.6149 C 57.6307 50.8989 44.5537 44.4379 32.4327 48.4819 C 25.8267 50.6849 20.5927 56.2799 17.8997 62.5709 C 15.8467 67.3649 14.8117 75.7409 20.5707 78.5239 C 21.3347 78.8929 22.0987 78.8039 22.7357 78.2449 C 28.1577 73.4889 27.9337 65.3249 35.6637 62.6269 C 42.2807 60.3169 49.5447 64.6709 51.3347 71.2699 L 51.4015 71.5005 C 52.9774 76.6056 60.0783 78.726 63.8697 74.5789 C 66.2937 71.9279 66.9157 69.7239 67.3287 66.2279 C 67.6147 63.7979 65.5587 62.2109 63.4997 61.6149 Z M 150.214 87.9682 C 148.264 65.8832 117.473 73.0662 105.201 80.0942 C 104.352 80.5802 104.675 82.0962 105.722 82.0162 C 108.163 81.8301 110.587 81.5015 113.011 81.173 C 117.151 80.612 121.287 80.0515 125.495 80.2022 C 129.964 80.3642 137.1 81.2762 138.777 86.2682 C 140.672 91.9112 134.562 96.2222 129.979 97.5692 L 129.713 97.6467 C 125.466 98.8763 117.455 100.78 113.649 98.1962 C 106.243 93.1662 98.3377 104.175 104.298 110.315 C 111.459 117.692 126.126 113.85 134.401 110.448 L 134.732 110.309 C 143.555 106.552 151.11 98.1312 150.214 87.9682 Z M 43.3465 121.477 C 56.0075 119.94 68.3817 122.402 80.7379 124.859 C 85.1111 125.729 89.4821 126.598 93.8627 127.29 C 102.711 128.686 111.57 129.728 120.523 130.116 C 122.324 130.194 124.127 130.24 125.929 130.277 C 126.096 128.691 126.984 127.234 128.908 126.361 C 132.852 124.574 136.008 123.768 140.338 123.94 C 144.301 124.097 148.278 124.504 152.181 125.218 C 159.268 126.518 166.386 129.466 171.57 134.589 C 183.567 146.442 181.741 165.481 172.471 178.391 C 153.319 205.069 118.364 206.307 88.4261 205.959 L 85.6634 205.923 C 82.6154 205.879 79.4206 205.891 76.1327 205.904 L 76.121 205.904 C 50.0058 206.004 18.0177 206.126 7.01977 178.584 C 2.46558 167.179 3.09822 153.96 8.67421 143.021 C 15.3249 129.974 29.3247 123.179 43.3465 121.477 Z M 81.4794 137.485 L 78.0689 137.102 C 77.7892 137.07 77.5094 137.038 77.2297 137.006 C 68.0368 135.957 58.8485 134.909 49.6549 135.539 C 48.2839 135.634 46.8919 135.783 45.4969 135.988 C 47.1713 142.03 47.0306 149.126 47.7301 155.107 C 48.0005 157.42 48.3418 159.714 48.7199 161.999 L 50.3634 161.922 C 60.5285 161.371 70.7036 161.032 80.8767 160.628 C 80.8759 158.718 80.8864 156.807 80.9169 154.895 L 80.9545 152.983 C 80.9884 151.554 80.9853 150.072 80.9822 148.563 C 80.9748 144.913 80.9669 141.102 81.4794 137.485 Z M 99.1274 138.664 C 108.873 138.652 119.127 138.311 129.049 136.71 C 129.463 137.009 129.9 137.27 130.361 137.459 L 130.753 137.601 C 130.23 142.195 129.86 146.809 129.523 151.424 L 129.029 158.345 L 127.265 158.439 C 114.764 159.074 102.261 159.687 89.7565 160.254 L 89.3311 156.653 C 88.8541 152.537 88.4152 148.417 88.0313 144.292 C 87.8407 142.25 87.709 140.155 87.4555 138.085 C 91.3441 138.43 95.2347 138.669 99.1274 138.664 Z M 22.3597 149.574 C 26.3002 142.485 33.6324 138.61 41.3798 136.776 C 39.4864 142.644 39.3956 149.948 39.2149 155.765 L 39.1128 158.814 C 39.0769 160.004 39.0488 161.196 39.0268 162.39 C 32.3981 162.629 25.7374 162.918 19.1896 163.68 C 18.992 158.767 20.0208 153.781 22.3597 149.574 Z M 133.358 138.428 C 133.904 144.953 134.207 151.505 134.609 158.042 L 142.85 157.602 C 144.224 157.527 145.597 157.45 146.97 157.371 C 148.454 157.286 150.056 157.099 151.708 156.906 C 156.003 156.406 160.64 155.865 164.453 156.955 C 164.856 152.155 163.484 147.479 159.152 144.255 C 151.547 138.591 141.864 140.608 133.358 138.428 Z M 162.585 164.278 C 159.359 165.039 155.772 165.031 152.353 165.023 C 150.839 165.02 149.358 165.017 147.956 165.08 C 143.678 165.275 139.399 165.444 135.121 165.617 C 135.322 168.538 135.519 171.457 135.733 174.376 C 136.008 178.148 136.034 182.135 136.756 185.891 C 145.366 182.953 153.08 178.241 158.868 170.706 C 160.31 168.829 161.601 166.626 162.585 164.278 Z M 128.251 165.905 L 128.495 165.895 C 128.318 168.393 128.136 170.89 127.967 173.389 C 127.697 177.412 127.761 181.732 127.061 185.787 C 126.359 186.373 125.83 187.229 125.649 188.501 L 125.629 188.717 C 115.677 190.492 105.17 190.681 95.4074 190.604 C 95.2976 190.367 95.1879 190.129 95.0362 189.893 C 94.6001 189.21 94.0144 188.74 93.3688 188.448 L 93.4296 188.028 C 93.5443 187.307 93.3051 186.307 93.0891 185.404 C 92.9875 184.979 92.891 184.576 92.8389 184.233 C 92.4547 181.703 92.0855 179.17 91.7413 176.635 C 91.3022 173.412 90.918 170.182 90.5419 166.953 C 103.117 166.73 115.683 166.39 128.251 165.905 Z M 21.2471 173.269 C 20.3321 171.062 19.7204 168.691 19.4061 166.269 C 25.8672 166.917 32.448 167.056 38.9849 167.117 C 39.0069 172.956 39.2992 178.802 40.1125 184.552 C 40.4388 186.865 41.731 188.215 43.3585 188.777 C 33.9787 186.944 25.1138 182.593 21.2471 173.269 Z M 80.9375 167.124 C 71.8788 167.278 62.8162 167.397 53.7594 167.286 L 49.6479 167.223 C 50.5161 171.881 51.461 176.523 52.2463 181.212 C 53.0656 186.099 48.7639 189.206 45.0409 189.081 C 45.459 189.149 45.8761 189.22 46.2942 189.279 C 55.9646 190.647 65.9434 190.576 75.817 190.505 C 77.8197 190.491 79.8181 190.477 81.8087 190.475 C 81.3529 187.814 81.3567 184.909 81.3601 182.337 L 81.3601 182.337 C 81.3614 181.325 81.3627 180.365 81.3358 179.491 L 81.3177 179.012 C 81.1371 175.047 81.0104 171.086 80.9375 167.124 Z" stroke-linecap="round"/>
</g>
</g>
</g>
</svg>